.\" Automatically generated by Pandoc 3.1.11.1
.\"
.TH "ks-vob" "1" "Oct 04, 2025" "2025-10-04" "Convert video file to VOB (DVD splitet) format"
.SH ks\-vob \- Convert video file to VOB (DVD splitet) format.
.SS Syntax:
.IP
.EX
$ ks\-vob </absolute/path/video.mkv> </path/prefix_name>
.EE
.SS Default configuration:
.IP \[bu] 2
The script \f[CR]ks\-vob\f[R] use by default the following
configuration:
.RS 2
.IP
.EX
\- Resolution: 720x480
\- Video codec: mpeg2video
\- Bitrate video: 3500k
\- Audio codec: libtwolame (stereo)
\- Bitrate audio: 192k
\- Default Audio: spa
\- Split: 30 minutes
\- Container: vob
.EE
.RE
.IP \[bu] 2
If you want to change the settings, you need to edit the
\f[CR]ks\-vob\f[R] file and change the following variables:
.RS 2
.IP
.EX
# Basic parameters
rel_size=\[dq]720x480\[dq]
vcodec=\[dq]mpeg2video\[dq]
b_vcodec=\[dq]3500k\[dq]
acodec=\[dq]libtwolame\[dq]
b_acodec=\[dq]192k\[dq]
default_lang_audio=\[dq]spa\[dq]
v_ext=\[dq]avi\[dq]
.EE
.RE
.SS Example of use:
.IP \[bu] 2
An example of use would be the following:
.RS 2
.IP
.EX
$ ks\-vob /data/movies/Example.mkv /data/converted/Example
.EE
.RE
.IP \[bu] 2
Executing the command, the file will be analyzed and a wizard will be
shown to select the tracks and choose the settings:
.RS 2
.IP
.EX
* Information of Example.mkv:

+ Video Tracks:
Stream #0:0: Video: h264 (High)

+ Audio Tracks:
Stream #0:1(spa): Audio: ac3
Stream #0:2(eng): Audio: ac3

* (Default: 0:0) Type the number of video track: 
* (Default: 0:1) Type the number of audio track: 
* (Default: 720x480) Type the resolution: 
* (Default: n) Do you want apply \[aq]\-max_muxing_queue_size 9999\[aq] patch? (y/n): n

* CONFIGURATION THAT WILL BE APPLIED:

  + Source file: Example.mkv
  + Destination: Example/VTS_01_*
  + Parameters: \-map 0:0 \-map 0:1 \-s 720x480 \-c:v mpeg2video \-b:v 3500k \-c:a libtwolame \-b:a 192k \-ac 2 \-clev 3dB \-slev \-6dB

* (Default: y) Do you want run the conversion? (y/n): n
.EE
.RE
.SS Manual
.IP \[bu] 2
This tool is part of ks-tools
